<mxfile host="app.diagrams.net" agent="Mozilla/5.0 (Macintosh; Intel Mac OS X 10.15; rv:131.0) Gecko/20100101 Firefox/131.0" version="24.7.17">
  <diagram name="Page-1" id="_qqSmELVDFTCD8QIhPZ8">
    <mxGraphModel dx="611" dy="476" grid="1" gridSize="10" guides="1" tooltips="1" connect="1" arrows="1" fold="1" page="1" pageScale="1" pageWidth="850" pageHeight="1100" math="0" shadow="0">
      <root>
        <mxCell id="0" />
        <mxCell id="1" parent="0" />
        <mxCell id="SCnsVuQ0XL_fHUprq9t2-6" style="edgeStyle=orthogonalEdgeStyle;rounded=0;orthogonalLoop=1;jettySize=auto;html=1;" edge="1" parent="1" source="SCnsVuQ0XL_fHUprq9t2-1" target="SCnsVuQ0XL_fHUprq9t2-3">
          <mxGeometry relative="1" as="geometry" />
        </mxCell>
        <mxCell id="SCnsVuQ0XL_fHUprq9t2-1" value="Bouton &quot;inscription&quot;" style="ellipse;whiteSpace=wrap;html=1;" vertex="1" parent="1">
          <mxGeometry x="70" y="240" width="120" height="80" as="geometry" />
        </mxCell>
        <mxCell id="SCnsVuQ0XL_fHUprq9t2-7" style="edgeStyle=orthogonalEdgeStyle;rounded=0;orthogonalLoop=1;jettySize=auto;html=1;entryX=0;entryY=0.5;entryDx=0;entryDy=0;" edge="1" parent="1" source="SCnsVuQ0XL_fHUprq9t2-2" target="SCnsVuQ0XL_fHUprq9t2-3">
          <mxGeometry relative="1" as="geometry" />
        </mxCell>
        <mxCell id="SCnsVuQ0XL_fHUprq9t2-2" value="Bouton &quot;connexion&quot;" style="ellipse;whiteSpace=wrap;html=1;" vertex="1" parent="1">
          <mxGeometry x="70" y="350" width="120" height="80" as="geometry" />
        </mxCell>
        <mxCell id="SCnsVuQ0XL_fHUprq9t2-10" style="edgeStyle=orthogonalEdgeStyle;rounded=0;orthogonalLoop=1;jettySize=auto;html=1;" edge="1" parent="1" source="SCnsVuQ0XL_fHUprq9t2-3" target="SCnsVuQ0XL_fHUprq9t2-9">
          <mxGeometry relative="1" as="geometry" />
        </mxCell>
        <mxCell id="SCnsVuQ0XL_fHUprq9t2-3" value="Bouton &quot;Jouer&quot;" style="ellipse;whiteSpace=wrap;html=1;" vertex="1" parent="1">
          <mxGeometry x="320" y="290" width="120" height="80" as="geometry" />
        </mxCell>
        <mxCell id="SCnsVuQ0XL_fHUprq9t2-4" value="" style="endArrow=none;html=1;rounded=0;exitX=0.422;exitY=0.007;exitDx=0;exitDy=0;exitPerimeter=0;entryX=0.422;entryY=0.989;entryDx=0;entryDy=0;entryPerimeter=0;" edge="1" parent="1" source="SCnsVuQ0XL_fHUprq9t2-2" target="SCnsVuQ0XL_fHUprq9t2-1">
          <mxGeometry width="50" height="50" relative="1" as="geometry">
            <mxPoint x="119.99999999999994" y="351.20000000000005" as="sourcePoint" />
            <mxPoint x="120.32" y="320" as="targetPoint" />
          </mxGeometry>
        </mxCell>
        <mxCell id="SCnsVuQ0XL_fHUprq9t2-5" value="" style="endArrow=none;html=1;rounded=0;exitX=0.414;exitY=0.015;exitDx=0;exitDy=0;exitPerimeter=0;entryX=0.584;entryY=0.991;entryDx=0;entryDy=0;entryPerimeter=0;" edge="1" parent="1" target="SCnsVuQ0XL_fHUprq9t2-1">
          <mxGeometry width="50" height="50" relative="1" as="geometry">
            <mxPoint x="140" y="351" as="sourcePoint" />
            <mxPoint x="140" y="320" as="targetPoint" />
          </mxGeometry>
        </mxCell>
        <mxCell id="SCnsVuQ0XL_fHUprq9t2-9" value="" style="rounded=0;whiteSpace=wrap;html=1;" vertex="1" parent="1">
          <mxGeometry x="550" y="115" width="750" height="430" as="geometry" />
        </mxCell>
        <mxCell id="SCnsVuQ0XL_fHUprq9t2-19" style="edgeStyle=orthogonalEdgeStyle;rounded=0;orthogonalLoop=1;jettySize=auto;html=1;" edge="1" parent="1" source="SCnsVuQ0XL_fHUprq9t2-11" target="SCnsVuQ0XL_fHUprq9t2-12">
          <mxGeometry relative="1" as="geometry" />
        </mxCell>
        <mxCell id="SCnsVuQ0XL_fHUprq9t2-11" value="Bouton &quot;Choisir thème&quot;" style="ellipse;whiteSpace=wrap;html=1;" vertex="1" parent="1">
          <mxGeometry x="630" y="230" width="120" height="80" as="geometry" />
        </mxCell>
        <mxCell id="SCnsVuQ0XL_fHUprq9t2-12" value="Bouton &quot;Miser&quot;" style="ellipse;whiteSpace=wrap;html=1;" vertex="1" parent="1">
          <mxGeometry x="1000" y="270" width="120" height="80" as="geometry" />
        </mxCell>
        <mxCell id="SCnsVuQ0XL_fHUprq9t2-20" style="edgeStyle=orthogonalEdgeStyle;rounded=0;orthogonalLoop=1;jettySize=auto;html=1;entryX=0;entryY=0.5;entryDx=0;entryDy=0;" edge="1" parent="1" source="SCnsVuQ0XL_fHUprq9t2-24" target="SCnsVuQ0XL_fHUprq9t2-12">
          <mxGeometry relative="1" as="geometry" />
        </mxCell>
        <mxCell id="SCnsVuQ0XL_fHUprq9t2-13" value="Lancement de la roue" style="rounded=0;whiteSpace=wrap;html=1;" vertex="1" parent="1">
          <mxGeometry x="580" y="340" width="120" height="80" as="geometry" />
        </mxCell>
        <mxCell id="SCnsVuQ0XL_fHUprq9t2-15" value="" style="endArrow=none;html=1;rounded=0;exitX=0.413;exitY=0.994;exitDx=0;exitDy=0;exitPerimeter=0;" edge="1" parent="1" source="SCnsVuQ0XL_fHUprq9t2-11">
          <mxGeometry width="50" height="50" relative="1" as="geometry">
            <mxPoint x="680" y="309" as="sourcePoint" />
            <mxPoint x="630" y="340" as="targetPoint" />
          </mxGeometry>
        </mxCell>
        <mxCell id="SCnsVuQ0XL_fHUprq9t2-16" value="" style="endArrow=none;html=1;rounded=0;exitX=0.584;exitY=0.994;exitDx=0;exitDy=0;exitPerimeter=0;entryX=0.584;entryY=-0.003;entryDx=0;entryDy=0;entryPerimeter=0;" edge="1" parent="1" source="SCnsVuQ0XL_fHUprq9t2-11" target="SCnsVuQ0XL_fHUprq9t2-13">
          <mxGeometry width="50" height="50" relative="1" as="geometry">
            <mxPoint x="680" y="310" as="sourcePoint" />
            <mxPoint x="680" y="340" as="targetPoint" />
          </mxGeometry>
        </mxCell>
        <mxCell id="SCnsVuQ0XL_fHUprq9t2-17" value="&lt;div&gt;Phase 1:&lt;/div&gt;" style="rounded=0;whiteSpace=wrap;html=1;strokeColor=#6666FF;dashed=1;" vertex="1" parent="1">
          <mxGeometry x="580" y="190" width="70" height="20" as="geometry" />
        </mxCell>
        <mxCell id="SCnsVuQ0XL_fHUprq9t2-18" value="&lt;div&gt;Phase 2:&lt;/div&gt;" style="rounded=0;whiteSpace=wrap;html=1;strokeColor=#6666FF;dashed=1;" vertex="1" parent="1">
          <mxGeometry x="940" y="190" width="70" height="20" as="geometry" />
        </mxCell>
        <mxCell id="SCnsVuQ0XL_fHUprq9t2-21" value="Indication du banquié" style="rounded=0;whiteSpace=wrap;html=1;" vertex="1" parent="1">
          <mxGeometry x="1000" y="380" width="120" height="80" as="geometry" />
        </mxCell>
        <mxCell id="SCnsVuQ0XL_fHUprq9t2-22" value="" style="endArrow=none;html=1;rounded=0;entryX=0.595;entryY=0.994;entryDx=0;entryDy=0;entryPerimeter=0;exitX=0.596;exitY=0.004;exitDx=0;exitDy=0;exitPerimeter=0;" edge="1" parent="1" source="SCnsVuQ0XL_fHUprq9t2-21" target="SCnsVuQ0XL_fHUprq9t2-12">
          <mxGeometry width="50" height="50" relative="1" as="geometry">
            <mxPoint x="1040" y="420" as="sourcePoint" />
            <mxPoint x="1090" y="370" as="targetPoint" />
          </mxGeometry>
        </mxCell>
        <mxCell id="SCnsVuQ0XL_fHUprq9t2-23" value="" style="endArrow=none;html=1;rounded=0;entryX=0.416;entryY=0.995;entryDx=0;entryDy=0;entryPerimeter=0;exitX=0.6;exitY=0.006;exitDx=0;exitDy=0;exitPerimeter=0;" edge="1" parent="1" target="SCnsVuQ0XL_fHUprq9t2-12">
          <mxGeometry width="50" height="50" relative="1" as="geometry">
            <mxPoint x="1050" y="380" as="sourcePoint" />
            <mxPoint x="1050" y="350" as="targetPoint" />
          </mxGeometry>
        </mxCell>
        <mxCell id="SCnsVuQ0XL_fHUprq9t2-25" value="" style="edgeStyle=orthogonalEdgeStyle;rounded=0;orthogonalLoop=1;jettySize=auto;html=1;entryX=0;entryY=0.5;entryDx=0;entryDy=0;" edge="1" parent="1" source="SCnsVuQ0XL_fHUprq9t2-13" target="SCnsVuQ0XL_fHUprq9t2-24">
          <mxGeometry relative="1" as="geometry">
            <mxPoint x="700" y="380" as="sourcePoint" />
            <mxPoint x="1000" y="310" as="targetPoint" />
          </mxGeometry>
        </mxCell>
        <mxCell id="SCnsVuQ0XL_fHUprq9t2-24" value="&lt;div&gt;Bouton&amp;nbsp;&lt;/div&gt;&lt;div&gt;&quot;Choix bonus&quot;&lt;/div&gt;" style="ellipse;whiteSpace=wrap;html=1;" vertex="1" parent="1">
          <mxGeometry x="750" y="340" width="120" height="80" as="geometry" />
        </mxCell>
        <mxCell id="SCnsVuQ0XL_fHUprq9t2-27" value="" style="endArrow=none;html=1;rounded=0;entryX=0.508;entryY=0.995;entryDx=0;entryDy=0;entryPerimeter=0;exitX=0.508;exitY=-0.001;exitDx=0;exitDy=0;exitPerimeter=0;" edge="1" parent="1" source="SCnsVuQ0XL_fHUprq9t2-21" target="SCnsVuQ0XL_fHUprq9t2-12">
          <mxGeometry width="50" height="50" relative="1" as="geometry">
            <mxPoint x="1060.5" y="380" as="sourcePoint" />
            <mxPoint x="1059.5" y="350" as="targetPoint" />
          </mxGeometry>
        </mxCell>
      </root>
    </mxGraphModel>
  </diagram>
</mxfile>
